Another planet, another time. 1000 years ago the mysterious Dark Crystal was damaged by one of the Urskeks and an age of chaos has began! The evil race of grotesque birdlike lizards the Skeksis, gnomish dragons who rule their fantastic planet with an iron claw. Meanwhile the orphan Jen, raised in solitude by a race of the peace-loving wizards called the Mystics, embarks on a quest to find the missing shard of the Dark Crystal which gives the Skesis their power and restore the balance of the universe.
 
http://www.imdb.com/title/tt0083791/

Subtitles (srt) : Dutch, English.

Covers included.

Een sprookjesachtige film van de makers van de Muppet Show. Dankzij de stralen van het Donkere Kristal leven de Gelflings in een wereld van welvaart en vrede. Wanneer het kristal door een aardbeving barst, komt er een echter einde aan hun gelukkige leven. Twee nieuwe rassen komen op, de vredelievende Mystici en de kwaadaardige Skekses die erop uit zijn de wereld te domineren. Duizend jaar later is Jen de laatste der Gelflings. De Mystici sturen hem erop uit om de kristal weer heel te maken. Maar hij is erg jong en weet niet wat voor kwaad hem te wachten staat. En als hij faalt, dan zullen de Skekses voor eeuwig de wereld regeren.
 
http://www.moviemeter.nl/film/1704

Ondertitels (srt) : Engels, Nederlands.

Hoesjes bijgevoegd.

General
Complete name                    : The Dark Crystal-AC3-XviD-BDRip[Eng]1982 2Lions-Team\The Dark Crystal-AC3-XviD-BDRip[Eng]1982 2Lions-Team.avi
Format                           : AVI
Format/Info                      : Audio Video Interleave
File size                        : 1.35 GiB
Duration                         : 1h 33mn
Overall bit rate                 : 2 079 Kbps
Writing application              : VirtualDubMod 1.5.4.1 (build 2178/release)
Writing library                  : VirtualDubMod build 2178/release
Source                           : The.Dark.Crystal.1982.AVCHD-RVL

Video
ID                               : 0
Format                           : MPEG-4 Visual
Format profile                   : Simple@L3
Format settings, BVOP            : No
Format settings, QPel            : No
Format settings, GMC             : No warppoints
Format settings, Matrix          : Default (H.263)
Codec ID                         : XVID
Codec ID/Hint                    : XviD
Duration                         : 1h 33mn
Bit rate                         : 1 622 Kbps
Width                            : 720 pixels
Height                           : 304 pixels
Display aspect ratio             : 2.35:1
Frame rate                       : 23.976 fps
Resolution                       : 8 bits
Colorimetry                      : 4:2:0
Scan type                        : Progressive
Bits/(Pixel*Frame)               : 0.309
Stream size                      : 1.06 GiB (78%)
Writing library                  : XviD 1.1.2 (UTC 2006-11-01)

Audio
ID                               : 1
Format                           : AC-3
Format/Info                      : Audio Coding 3
Format_Settings_ModeExtension    : CM (complete main)
Codec ID                         : 2000
Duration                         : 1h 33mn
Bit rate mode                    : Constant
Bit rate                         : 448 Kbps
Channel(s)                       : 6 channels
Channel positions                : Front: L C R, Side: L R, LFE
Sampling rate                    : 48.0 KHz
Stream size                      : 298 MiB (22%)
Alignment                        : Split accross interleaves
Interleave, duration             : 42 ms (1.00 video frame)
Interleave, preload duration     : 500 ms

Brought to you by 
2Lions Team

meer zien??
                   
Kom dan eens kijken op ons NIEUWE forum 
            
http://www.2lions-site.nl/

2Lions the site to be for all your Dutch MOVIES and more

******************************************

DON T HIT AND RUN Niet gelijk afhaken als de FILM binnen is blijf seeden. 

Don`t quit after you finished the download, but keep seeding

There are fake torrents from uploaders who use our team name.
Those are not ours, or members from our team.
We 2Lions-Team are not responsible for the fake posts on our name

Wij 2Lions-Team zijn niet verantwoordelijk voor die zieke FAKE posten die op onze naam worden gedaan

Please check our site !!!

to the fakers , get a life !!!